<?xml version="1.0" encoding="UTF-8"?>
<svg id="Camada_2" data-name="Camada 2" xmlns="http://www.w3.org/2000/svg" viewBox="0 0 467.73 383.06">
  <defs>
    <style>
      .cls-1 {
        fill: #fff;
      }

      .cls-2 {
        fill: #ec646e;
      }
    </style>
  </defs>
  <g id="Camada_1-2" data-name="Camada 1">
    <path class="cls-2" d="m390.15,318.29h-96.47l-48.17,58.3c-7.29,8.82-20.88,8.59-27.87-.47l-44.59-57.83h-95.48C34.73,318.29,0,283.56,0,240.72V77.57C0,34.73,34.73,0,77.57,0h312.58c42.84,0,77.57,34.73,77.57,77.57v163.14c0,42.84-34.73,77.57-77.57,77.57Z"/>
    <g>
      <path class="cls-1" d="m227.81,270.35c-29.87-30.5-74.31-47.2-113.39-50.45-4.76-.4-8.42-4.32-8.4-9.1.1-36.93-1.35-75.27-1.48-112.29-.02-5.45,4.75-9.71,10.16-9.06,41.8,4.98,84.13,18.71,112.99,50.13,3.58,3.89,9.76,3.87,13.31-.05,28.39-31.34,70.32-44.44,111.74-49.98,5.39-.72,10.23,3.39,10.35,8.82.46,22.33-.61,77.17-1.01,112.45-.05,4.75-3.75,8.65-8.5,8.95-44.17,2.8-81.98,18.8-112.79,50.4-3.55,3.65-9.42,3.81-12.98.18Z"/>
      <path class="cls-1" d="m334.04,70.08c0,.53,0,1.06,0,1.59-.04,7.03-.09,6.74-6.99,7.94-8.43,1.46-16.99,2.79-25.1,5.4-15.19,4.89-29.38,12.14-42.35,21.47-7.91,5.69-15.43,11.91-23.07,17.98-3.59,2.85-3.76,3.03-6.97-.36-9.12-9.64-19.54-17.72-31.13-24-10.3-5.58-20.93-10.93-32-14.63-9.64-3.22-20.08-4.1-30.2-5.76-2.11-.35-2.7-1.04-2.63-2.95.17-4.34.37-8.69.31-13.03-.03-2.37.89-3,3.04-2.61,9.79,1.77,19.73,2.95,29.34,5.4,9.61,2.45,19.12,5.64,28.3,9.42,13.65,5.62,25.91,13.56,35.95,24.59,2.97,3.26,2.94,3.18,6.22.41,15.07-12.72,31.11-23.95,49.78-30.81,14.39-5.28,29.17-8.93,44.63-9.27,2.31-.05,3.04.72,2.94,2.87-.1,2.12-.02,4.24-.02,6.36-.01,0-.02,0-.03,0Z"/>
    </g>
  </g>
</svg>